<?xml version="1.0" encoding="UTF-8" standalone="no"?>
<!-- Creator: CorelDRAW 2017 -->

<svg
   xmlns:dc="http://purl.org/dc/elements/1.1/"
   xmlns:cc="http://creativecommons.org/ns#"
   xmlns:rdf="http://www.w3.org/1999/02/22-rdf-syntax-ns#"
   xmlns:svg="http://www.w3.org/2000/svg"
   xmlns="http://www.w3.org/2000/svg"
   xmlns:xlink="http://www.w3.org/1999/xlink"
   xmlns:sodipodi="http://sodipodi.sourceforge.net/DTD/sodipodi-0.dtd"
   xmlns:inkscape="http://www.inkscape.org/namespaces/inkscape"
   xml:space="preserve"
   width="551.92798"
   height="570.36298"
   version="1.1"
   style="clip-rule:evenodd;fill-rule:evenodd;image-rendering:optimizeQuality;shape-rendering:geometricPrecision;text-rendering:geometricPrecision"
   viewBox="0 0 551.92798 570.36298"
   id="svg127"
   sodipodi:docname="юфу_2.svg"
   inkscape:version="0.92.4 (f8dce91, 2019-08-02)"><metadata
   id="metadata131"><rdf:RDF><cc:Work
       rdf:about=""><dc:format>image/svg+xml</dc:format><dc:type
         rdf:resource="http://purl.org/dc/dcmitype/StillImage" /><dc:title></dc:title></cc:Work></rdf:RDF></metadata><sodipodi:namedview
   pagecolor="#ffffff"
   bordercolor="#666666"
   borderopacity="1"
   objecttolerance="10"
   gridtolerance="10"
   guidetolerance="10"
   inkscape:pageopacity="0"
   inkscape:pageshadow="2"
   inkscape:window-width="1920"
   inkscape:window-height="1029"
   id="namedview129"
   showgrid="false"
   inkscape:zoom="1.3920923"
   inkscape:cx="275.362"
   inkscape:cy="285.78"
   inkscape:window-x="0"
   inkscape:window-y="0"
   inkscape:window-maximized="1"
   inkscape:current-layer="svg127" />
 <defs
   id="defs106">
  <style
   type="text/css"
   id="style85">
   <![CDATA[
    .fil1 {fill:none}
    .fil0 {fill:#DF3B09}
    .fil2 {fill:#0053AB;fill-rule:nonzero}
   ]]>
  </style>
    <mask
   id="id0">
  <linearGradient
   id="id1"
   gradientUnits="userSpaceOnUse"
   x1="350.62601"
   y1="507.91299"
   x2="357.41101"
   y2="471.62701">
   <stop
   offset="0"
   style="stop-opacity:0; stop-color:white"
   id="stop87" />
   <stop
   offset="1"
   style="stop-opacity:1; stop-color:white"
   id="stop89" />
  </linearGradient>
     <rect
   style="fill:url(#id1)"
   x="312.315"
   y="471.56699"
   width="267.75101"
   height="29.183001"
   id="rect92" />
    </mask>
    <mask
   id="id2">
  <linearGradient
   id="id3"
   gradientUnits="userSpaceOnUse"
   x1="244.076"
   y1="512.79102"
   x2="238.01401"
   y2="484.37601">
   <stop
   offset="0"
   style="stop-opacity:0; stop-color:white"
   id="stop95" />
   <stop
   offset="1"
   style="stop-opacity:1; stop-color:white"
   id="stop97" />
  </linearGradient>
     <rect
   style="fill:url(#id3)"
   x="28.138"
   y="471.56699"
   width="267.75"
   height="29.183001"
   id="rect100" />
    </mask>
    <clipPath
   id="id4">
     <rect
   x="207.578"
   y="382.36099"
   width="193.94901"
   height="193.94901"
   id="rect103" />
    </clipPath>
 </defs>
 <g
   id="Слой_x0020_1"
   transform="translate(-28.138,-18.917)">
  <metadata
   id="CorelCorpID_0Corel-Layer" />
  <g
   id="_685480240">
   <polygon
   class="fil0"
   points="308.116,480.576 422.541,225.283 443.754,262.828 "
   id="polygon109"
   style="fill:#df3b09" />
   <line
   class="fil1"
   x1="304.552"
   y1="18.917"
   x2="578.91199"
   y2="499.32401"
   id="line111"
   style="fill:none" />
   <path
   class="fil0"
   d="m 537.443,426.712 14.93,26.142 -226.728,40.96 z m -24.608,-43.089 14.888,26.069 -215.776,84.671 z m -24.803,-43.431 14.656,25.663 -188.691,123.26 z m -30.534,-53.361 17.861,31.612 -167.14,170.599 z m -83.293,-145.392 29.663,52.5 -99.316,285.143 z m -69.653,-122.522 46.156,81.69 -47.835,372.391 z m -38.455,71.857 -33.859,57.535 69.167,326.157 z m -59.874,100.522 -21.213,37.545 113.819,252.155 z m -41.811,73.425 -17.861,31.613 149.097,187.802 z m -34.957,59.317 -15.548,27.131 182.607,139.204 z m -31.005,53.961 -14.888,26.069 206.755,87.398 z m -27.69,48.713 -14.93,26.142 226.728,40.96 z"
   id="path113"
   inkscape:connector-curvature="0"
   style="fill:#df3b09" />
   <polygon
   class="fil0"
   style="fill:#df3b09"
   points="312.315,500.75 563.06,471.567 580.066,500.74 "
   mask="url(#id0)"
   id="polygon115" />
   <polygon
   class="fil0"
   style="fill:#df3b09"
   points="295.888,500.75 45.143,471.567 28.138,500.74 "
   mask="url(#id2)"
   id="polygon117" />
   <g
   clip-path="url(#id4)"
   id="g121">
    <image
   sodipodi:absref="/home/user/Рабочий стол/логотипы/юфу_Images\юфу_ImgID1.png"
   xlink:href="юфу_Images\юфу_ImgID1.png"
   id="image119"
   height="193.95"
   width="193.95"
   y="382.35999"
   x="207.578" />
   </g>
   <path
   class="fil2"
   d="m 265.589,573.685 c 1.356,-3.371 2.386,-7.156 3.089,-11.357 0.714,-4.187 1.066,-8.401 1.066,-12.64 0,-4.589 -0.764,-8.038 -2.302,-10.332 -1.539,-2.295 -3.804,-3.436 -6.784,-3.436 -2.508,0 -4.846,0.947 -7.014,2.852 -2.181,1.906 -4.156,4.81 -5.924,8.712 -1.539,3.449 -2.702,7.286 -3.477,11.499 -0.787,4.227 -1.175,8.349 -1.175,12.381 0,4.849 0.775,8.453 2.338,10.838 1.563,2.386 3.901,3.578 7.026,3.578 2.932,0 5.512,-1.154 7.753,-3.461 2.23,-2.308 4.034,-5.186 5.404,-8.634 z m -47.61,5.51 c -0.085,0.427 -0.17,0.829 -0.231,1.205 -0.06,0.389 -0.084,0.674 -0.084,0.882 0,0.726 0.157,1.335 0.485,1.802 0.315,0.467 0.751,0.817 1.283,1.05 0.546,0.22 1.2,0.402 1.963,0.531 0.751,0.117 1.551,0.234 2.375,0.337 l -0.606,2.801 h -27.015 l 0.606,-2.801 c 0.581,-0.026 1.465,-0.116 2.641,-0.259 1.174,-0.155 2.035,-0.337 2.604,-0.544 0.921,-0.325 1.623,-0.817 2.108,-1.491 0.497,-0.674 0.824,-1.452 1.018,-2.334 l 8.116,-37.647 c 0.121,-0.532 0.206,-0.973 0.255,-1.323 0.048,-0.35 0.072,-0.622 0.072,-0.804 0,-1.063 -0.509,-1.879 -1.514,-2.476 -1.006,-0.596 -2.641,-1.076 -4.906,-1.426 l 0.593,-2.8 h 27.027 l -0.605,2.8 c -0.727,0.052 -1.587,0.182 -2.569,0.376 -0.981,0.208 -1.768,0.389 -2.362,0.571 -0.993,0.324 -1.708,0.855 -2.168,1.568 -0.448,0.726 -0.763,1.491 -0.957,2.308 l -3.526,16.335 h 8.468 c 1.067,-4.149 2.581,-7.779 4.543,-10.89 1.963,-3.125 4.277,-5.795 6.954,-8.012 2.617,-2.152 5.536,-3.786 8.759,-4.888 3.21,-1.102 6.541,-1.646 9.97,-1.646 3.21,0 6.166,0.506 8.868,1.517 2.689,1.011 5.027,2.476 6.99,4.369 2.011,1.97 3.549,4.304 4.639,6.975 1.091,2.67 1.636,5.807 1.636,9.398 0,4.408 -0.763,8.725 -2.29,12.964 -1.526,4.253 -3.658,7.935 -6.396,11.072 -2.823,3.228 -6.154,5.782 -10.007,7.701 -3.852,1.905 -8.249,2.864 -13.168,2.864 -3.162,0 -6.057,-0.479 -8.674,-1.452 -2.604,-0.959 -4.882,-2.385 -6.82,-4.291 -1.915,-1.853 -3.405,-4.135 -4.471,-6.844 -1.066,-2.71 -1.599,-5.796 -1.599,-9.244 0,-1.089 0.024,-2.048 0.073,-2.852 0.048,-0.817 0.17,-1.815 0.351,-3.008 h -8.625 z M 350.292,557.48 c 0,2.735 -0.545,5.471 -1.635,8.219 -1.09,2.735 -2.774,5.146 -5.052,7.26 -2.386,2.178 -5.294,3.915 -8.71,5.211 -3.404,1.284 -7.681,1.932 -12.829,1.932 h -1.381 c -0.097,0.506 -0.182,1.037 -0.267,1.595 -0.085,0.557 -0.133,0.907 -0.133,1.05 0,1.14 0.497,1.892 1.49,2.281 0.994,0.376 2.641,0.623 4.943,0.752 l -0.606,2.8 H 299.69 l 0.606,-2.8 c 0.594,-0.052 1.43,-0.129 2.532,-0.246 1.103,-0.117 1.89,-0.272 2.362,-0.48 0.824,-0.324 1.466,-0.765 1.915,-1.335 0.448,-0.57 0.763,-1.322 0.92,-2.256 l 0.254,-1.283 c -6.481,0 -11.629,-1.452 -15.433,-4.369 -3.816,-2.917 -5.718,-7.014 -5.718,-12.29 0,-2.891 0.509,-5.626 1.526,-8.206 1.018,-2.593 2.702,-4.978 5.052,-7.182 2.205,-2.088 5.124,-3.773 8.746,-5.082 3.635,-1.31 7.887,-1.958 12.769,-1.958 h 1.49 c 0.073,-0.376 0.134,-0.7 0.182,-0.985 0.049,-0.273 0.073,-0.571 0.073,-0.869 0,-1.076 -0.473,-1.867 -1.418,-2.346 -0.957,-0.467 -2.471,-0.856 -4.543,-1.128 l 0.594,-2.801 h 26.131 l -0.606,2.801 c -0.678,0.026 -1.49,0.091 -2.423,0.207 -0.933,0.117 -1.769,0.298 -2.507,0.545 -0.897,0.311 -1.551,0.791 -1.975,1.439 -0.412,0.661 -0.776,1.685 -1.115,3.098 6.687,0 11.884,1.387 15.604,4.162 3.719,2.774 5.584,6.871 5.584,12.264 z m -16.536,11.888 c 1.09,-2.126 1.914,-4.434 2.472,-6.923 0.557,-2.489 0.835,-4.952 0.835,-7.39 0,-1.192 -0.121,-2.476 -0.375,-3.837 -0.242,-1.374 -0.666,-2.541 -1.26,-3.513 -0.642,-1.012 -1.526,-1.828 -2.641,-2.451 -1.115,-0.622 -2.568,-0.933 -4.349,-0.933 l -6.99,32.592 h 1.308 c 2.472,0 4.628,-0.7 6.481,-2.1 1.854,-1.387 3.356,-3.203 4.519,-5.445 z m -17.808,-25.047 h -1.32 c -2.508,0 -4.665,0.713 -6.482,2.126 -1.805,1.426 -3.307,3.228 -4.482,5.419 -1.114,2.075 -1.95,4.408 -2.496,6.975 -0.545,2.58 -0.811,5.004 -0.811,7.26 0,1.452 0.097,2.722 0.278,3.85 0.194,1.115 0.643,2.269 1.357,3.461 0.666,1.089 1.575,1.945 2.726,2.567 1.163,0.623 2.568,0.934 4.228,0.934 z m 95.449,-10.423 -0.642,2.8 c -0.654,0.052 -1.453,0.208 -2.398,0.454 -0.933,0.246 -1.769,0.596 -2.496,1.024 -0.945,0.557 -1.732,1.193 -2.362,1.906 -0.63,0.726 -1.393,1.724 -2.29,3.007 -2.629,3.825 -5.996,8.985 -10.103,15.479 -4.107,6.496 -7.123,11.163 -9.074,14.002 -2.568,3.798 -4.81,6.78 -6.723,8.945 -1.902,2.165 -3.635,3.799 -5.198,4.913 -1.417,1.038 -2.749,1.75 -4.022,2.127 -1.259,0.375 -2.507,0.57 -3.743,0.57 -2.265,0 -4.191,-0.7 -5.778,-2.087 -1.588,-1.387 -2.375,-3.034 -2.375,-4.927 0,-0.764 0.073,-1.464 0.23,-2.126 0.158,-0.661 0.497,-1.374 1.006,-2.165 0.412,-0.622 1.005,-1.154 1.793,-1.581 0.799,-0.428 1.744,-0.648 2.859,-0.648 1.514,0 2.955,0.518 4.312,1.542 1.357,1.024 2.884,2.71 4.592,5.069 1.199,-0.713 2.411,-1.763 3.622,-3.137 1.199,-1.387 2.241,-2.762 3.114,-4.136 -2.86,-7.195 -5.597,-13.975 -8.202,-20.34 -2.604,-6.379 -4.398,-10.644 -5.403,-12.796 -0.327,-0.726 -0.678,-1.387 -1.054,-1.983 -0.388,-0.584 -1.066,-1.18 -2.06,-1.789 -0.641,-0.351 -1.356,-0.649 -2.132,-0.882 -0.787,-0.246 -1.502,-0.389 -2.168,-0.441 l 0.642,-2.8 h 27.245 l -0.642,2.8 c -2.011,0.078 -3.707,0.298 -5.088,0.662 -1.393,0.362 -2.083,0.803 -2.083,1.335 0,0.35 0.072,0.726 0.218,1.115 0.133,0.389 0.242,0.674 0.315,0.855 0.545,1.465 1.647,4.201 3.295,8.207 1.659,4.005 3.549,8.595 5.693,13.767 1.745,-2.761 3.392,-5.432 4.931,-8.011 1.538,-2.567 3.028,-5.095 4.47,-7.585 1.272,-2.177 2.181,-3.876 2.726,-5.081 0.545,-1.219 0.824,-2.036 0.824,-2.464 0,-0.713 -0.582,-1.283 -1.745,-1.737 -1.163,-0.453 -2.798,-0.816 -4.931,-1.063 l 0.643,-2.8 z"
   id="path123"
   inkscape:connector-curvature="0"
   style="fill:#0053ab;fill-rule:nonzero" />
  </g>
 </g>
</svg>